<?xml version="1.0" encoding="utf-8"?>
<!-- Generator: Adobe Illustrator 25.4.0, SVG Export Plug-In . SVG Version: 6.00 Build 0)  -->
<svg version="1.1" id="Layer_1" xmlns="http://www.w3.org/2000/svg" xmlns:xlink="http://www.w3.org/1999/xlink" x="0px" y="0px"
	 viewBox="0 0 512 512" style="enable-background:new 0 0 512 512;" xml:space="preserve">
<g id="XMLID_22_">
	<g id="XMLID_64_">
		<defs>
			<path id="XMLID_65_" d="M256,486C129,486,25.7,382.8,25.7,256C25.7,129.2,129,26,256,26c127,0,230.3,103.2,230.3,230
				C486.3,382.8,383,486,256,486L256,486z M450.2,287.5c-6.7-2.1-60.9-18.3-122.5-8.4c25.7,70.6,36.2,128.1,38.2,140.1
				C410,389.4,441.5,342.1,450.2,287.5L450.2,287.5z M332.8,437.1c-2.9-17.2-14.3-77.3-42-149c-0.4,0.1-0.9,0.3-1.3,0.4
				c-111,38.6-150.8,115.5-154.3,122.7c33.4,26,75.3,41.5,120.7,41.5C283.3,452.8,309.2,447.2,332.8,437.1L332.8,437.1z
				 M109.9,387.7c4.5-7.6,58.4-96.9,159.9-129.6c2.6-0.8,5.1-1.6,7.8-2.3c-4.9-11.2-10.3-22.3-15.9-33.3
				c-98.2,29.4-193.6,28.1-202.2,28c-0.1,2-0.1,4-0.1,6C59.3,306.8,78.4,352.8,109.9,387.7L109.9,387.7z M63.4,216.1
				c8.8,0.1,89.8,0.5,181.9-23.9c-32.6-57.9-67.7-106.5-72.9-113.6C117.3,104.4,76.2,155.1,63.4,216.1L63.4,216.1z M209.9,65.3
				c5.4,7.3,41.2,55.9,73.4,115c70-26.2,99.6-65.9,103.1-71C351.7,78.6,306,59.8,256,59.8C240.1,59.8,224.7,61.7,209.9,65.3
				L209.9,65.3z M408.3,132.1c-4.1,5.6-37.1,47.8-109.8,77.5c4.6,9.4,9,18.9,13.1,28.5c1.4,3.4,2.9,6.8,4.2,10.1
				c65.5-8.2,130.5,5,137,6.3C452.3,208.1,435.7,165.5,408.3,132.1L408.3,132.1z"/>
		</defs>
		<use xlink:href="#XMLID_65_"  style="overflow:visible;fill-rule:evenodd;clip-rule:evenodd;fill:#333333;"/>
		<clipPath id="XMLID_00000017479291605219313240000015153289091361667207_">
			<use xlink:href="#XMLID_65_"  style="overflow:visible;"/>
		</clipPath>
	</g>
</g>
</svg>
