<?xml version="1.0" encoding="utf-8"?>
<!-- Generator: Adobe Illustrator 25.4.0, SVG Export Plug-In . SVG Version: 6.00 Build 0)  -->
<svg version="1.1" id="Layer_1" xmlns="http://www.w3.org/2000/svg" xmlns:xlink="http://www.w3.org/1999/xlink" x="0px" y="0px"
	 viewBox="0 0 48 48" style="enable-background:new 0 0 48 48;" xml:space="preserve">
<style type="text/css">
	.st0{fill:#424242;}
	.st1{fill:#40C4FF;}
	.st2{fill:#FF4081;}
	.st3{fill:#FFB74D;}
	.st4{fill:#7C4DFF;}
	.st5{fill:#E040FB;}
	.st6{fill:#FF80AB;}
	.st7{fill:#FFE0B2;}
</style>
<path class="st0" d="M36.2,44.1H11.8c-4.4,0-7.9-3.5-7.9-7.9V11.8c0-4.4,3.5-7.9,7.9-7.9h24.4c4.4,0,7.9,3.5,7.9,7.9v24.4
	C44.1,40.6,40.6,44.1,36.2,44.1z"/>
<path class="st1" d="M36.9,18c-0.6,1.6-1.6,3.2-3.1,4.8c0,0,0,0-0.1,0.1c-1.5,1.5-3.5,3-6.2,4.1c-0.3,0.1-0.5,0.2-0.8,0.3
	c-0.9,0.4-1.8,0.7-2.7,1c-7,2.3-10.9,1.5-13.9,9.3c-0.1,0.1-0.1,0.3-0.2,0.4c0-0.2,0-0.4,0-0.6c0.1-4.3,1.2-13.3,14.5-16.4
	c1.2-0.3,2.2-0.6,3.2-0.9c8.8-3.1,9.8-8.5,9.8-10.3C38,11.3,38.3,14.6,36.9,18z"/>
<path class="st2" d="M33.8,22.8C33.8,22.8,33.7,22.8,33.8,22.8c-1.6,1.6-3.6,3.1-6.3,4.2c-0.3,0.1-0.5,0.2-0.8,0.3
	c-0.9,0.4-1.8,0.7-2.7,1c-7,2.3-10.9,1.5-13.9,9.3c-0.1,0.1-0.1,0.3-0.2,0.4c0-0.2,0-0.3,0.1-0.5c0-0.3,0.1-0.6,0.2-0.9c0,0,0,0,0,0
	c0.6-2.9,2.1-7.4,6.8-9.5C19.8,25.7,28,23.6,33.8,22.8z"/>
<path class="st3" d="M24,28.3c-7,2.3-11,1.9-14,9.7l0.1-0.5l-0.1,0c0.1-0.3,0.1-0.5,0.2-0.8c0,0,0,0,0,0c0.9-3,2.7-7.6,9.8-8.5
	C21.5,27.8,22.8,28,24,28.3z"/>
<path class="st4" d="M36.9,18c-2.4,1.8-8.2,5-18.9,7c1.8-1.1,6.1-2.2,9.7-4.9c8.8-3.1,9.8-8.5,9.8-10.3C38,11.3,38.3,14.6,36.9,18z"
	/>
<path class="st5" d="M33.7,22.9c-1.6,1-4,2.1-8.1,2.9c-0.5,0.1-1,0.2-1.6,0.3c-4,0.6-7.7,1.8-10.3,4.6c-0.4,0.4-0.7,0.8-1.1,1.3
	c-1.1,1.6-2,3.6-2.6,6.1c0-0.2,0-0.4,0-0.6c0.1-4.2,1.9-9,7.3-12.3c1.6-1,3.4-1.8,5.7-2.4c0.9-0.3,1.9-0.5,3-0.7
	c4.9-1,7.8-2.8,9.4-4.8c2.6-3.1,2.1-6.6,2.1-7.5C38.3,12,38.4,18,33.7,22.9z"/>
<path class="st6" d="M27.6,21.6c-0.5,0.1-1,0.2-1.6,0.4c-1.1,0.2-2.1,0.5-3,0.7c-2.2,0.6-4.1,1.5-5.7,2.4c-3,2.7-4.3,5.3-4.7,6.8
	c0.3-0.5,0.7-0.9,1.1-1.3c2.2-2.4,5.2-3.6,8.4-4.3C23.8,25.3,26.1,23.8,27.6,21.6z"/>
<path class="st7" d="M23,22.7L23,22.7c-1.7,0.8-7.2,3.8-9.3,7.9C12,32.4,10.8,34.8,10,38c0-0.2,0-0.4,0-0.6
	C10.2,32,13.1,25.6,23,22.7z"/>
</svg>
