<svg width="171" height="76" viewBox="0 0 171 76" fill="none" xmlns="http://www.w3.org/2000/svg">
<path d="M19.7792 29.1243C20.1339 29.1281 20.3881 29.1796 20.5419 29.2789C20.719 29.3752 20.8422 29.5136 20.9115 29.6941C20.978 29.8512 21.0124 30.0359 21.0148 30.2481C21.0404 30.4575 21.066 30.6669 21.0916 30.8762C20.7712 31.1516 20.3533 31.4034 19.8382 31.6318C19.3435 31.834 18.7878 32.0201 18.171 32.19C17.5514 32.3367 16.8955 32.476 16.2033 32.608C15.5315 32.7138 14.8597 32.8196 14.1879 32.9255C14.1513 33.5911 14.0972 34.3061 14.0254 35.0705C13.9509 35.8116 13.7915 36.7284 13.5474 37.8208C13.31 38.5819 13.0004 39.1392 12.6187 39.4929C12.2341 39.8233 11.8092 40.017 11.3439 40.074C10.9019 40.1281 10.4354 40.0789 9.94454 39.9265C9.45079 39.7508 8.97745 39.549 8.52453 39.3211C8.44099 39.0243 8.38522 38.6652 8.35723 38.2436C8.32924 37.822 8.31003 37.3757 8.29961 36.9047C8.28634 36.4105 8.28613 35.9265 8.29897 35.4526C8.33223 34.9527 8.35528 34.4658 8.36812 33.992C7.63791 34.1994 7.04587 34.3782 6.59198 34.5282C6.16135 34.6753 5.85726 34.7952 5.67969 34.8878C5.23483 34.9186 4.8759 34.8799 4.60292 34.7716C4.32993 34.6634 4.10062 34.5262 3.91499 34.36C3.72652 34.1705 3.55846 33.955 3.41082 33.7133C3.26318 33.4716 3.09085 33.2212 2.89383 32.962C2.96411 32.7645 2.94299 32.4955 2.83049 32.1551C2.74125 31.8118 2.58055 31.56 2.3484 31.3995C2.53166 31.3534 2.65558 31.2084 2.72017 30.9644C2.7819 30.6971 2.75912 30.511 2.65183 30.406C3.01266 30.2674 3.40103 30.1608 3.81693 30.0863C4.25325 29.9857 4.67936 29.8981 5.09526 29.8236C5.51116 29.7491 5.90238 29.6658 6.2689 29.5737C6.63258 29.4583 6.94546 29.3138 7.20755 29.14C7.53324 29.1002 7.83567 29.0632 8.11484 29.029C8.41442 28.9687 8.72706 28.9186 9.05275 28.8788C9.08553 28.5678 9.04257 28.3133 8.92389 28.1153C8.80521 27.9173 8.75917 27.7341 8.78576 27.5655C8.81805 27.4435 8.89093 27.3638 9.0044 27.3263C9.13829 27.2627 9.20975 27.1713 9.21878 27.0521C9.27481 26.7383 9.2696 26.5028 9.20314 26.3456C9.13384 26.1652 9.15189 25.9269 9.2573 25.6306C9.35084 25.4303 9.46646 25.121 9.60417 24.7027C9.76514 24.2816 9.79531 23.8529 9.69468 23.4166C9.90738 23.2252 10.094 23.0135 10.2545 22.7814C10.4382 22.5464 10.6248 22.3346 10.8142 22.1461C11.0241 21.9316 11.2499 21.7504 11.4915 21.6028C11.7536 21.429 12.0824 21.318 12.4779 21.2696C12.7186 21.4998 12.8997 21.7256 13.0212 21.9468C13.1428 22.1681 13.2629 22.3777 13.3815 22.5757C13.5002 22.7737 13.6408 22.9572 13.8031 23.1262C13.9887 23.2924 14.2427 23.4384 14.5651 23.5642C14.5907 23.7736 14.5872 24.0338 14.5544 24.3447C14.5216 24.6557 14.5005 24.9653 14.491 25.2734C14.4814 25.5815 14.5026 25.8505 14.5543 26.0803C14.606 26.3101 14.7423 26.4587 14.963 26.5261C14.9013 26.7934 14.8396 27.0607 14.7778 27.328C14.7365 27.5692 14.6952 27.8103 14.6539 28.0515C15.0579 28.0729 15.5173 28.0639 16.0319 28.0245C16.5437 27.9619 17.038 27.9486 17.5146 27.9847C17.9884 27.9976 18.4243 28.0859 18.8221 28.2497C19.2404 28.3874 19.5594 28.6789 19.7792 29.1243ZM47.6815 14.3043C48.6728 14.301 49.5694 14.392 50.3713 14.5772C51.1732 14.7624 51.8701 15.0549 52.4621 15.4546C52.9055 15.9907 53.3314 16.5761 53.7397 17.2109C54.1712 17.8428 54.5139 18.521 54.7679 19.2456C55.0423 19.944 55.2148 20.6784 55.2855 21.449C55.3795 22.2167 55.312 23.016 55.0832 23.8468C54.511 24.7669 53.7692 25.5543 52.8576 26.2089C51.9664 26.8375 50.9824 27.3829 49.9056 27.8453C48.8288 28.3077 47.6998 28.7292 46.5185 29.1099C45.3605 29.4878 44.2258 29.8628 43.1144 30.235C43.2031 30.7672 43.2729 31.3372 43.3237 31.9449C43.3948 32.5265 43.4093 33.1268 43.367 33.7459C43.3451 34.3389 43.2637 34.9274 43.1227 35.5113C42.9816 36.0953 42.7651 36.6413 42.4731 37.1493C42.0776 37.1977 41.6762 37.294 41.2688 37.4383C40.8643 37.6059 40.5035 37.7445 40.1863 37.8542C40.0121 37.7811 39.8495 37.7065 39.6985 37.6305C39.5736 37.575 39.3935 37.5498 39.158 37.555C39.176 37.3167 39.0894 37.0912 38.8981 36.8785C38.7039 36.6425 38.5097 36.4065 38.3156 36.1705C38.1214 35.9346 37.9752 35.7045 37.8769 35.4804C37.8019 35.2535 37.8912 35.0183 38.1447 34.7747C37.9619 34.6318 37.8549 34.4324 37.8236 34.1765C37.9522 33.8774 38.0448 33.4764 38.1014 32.9737C38.1812 32.468 38.2275 31.9783 38.2403 31.5045C38.2736 31.0046 38.2427 30.5597 38.1478 30.1699C38.0529 29.7801 37.7846 29.5178 37.3431 29.3829C37.3607 29.3336 37.4044 29.3046 37.4741 29.2961C37.5439 29.2875 37.6123 29.2674 37.6792 29.2355C37.4761 29.1187 37.3355 28.9352 37.2577 28.685C37.2031 28.432 37.0946 28.2209 36.9323 28.0519C36.9645 27.9299 36.9866 27.8209 36.9985 27.725C37.0104 27.6291 37.0875 27.5843 37.23 27.5904C37.1089 27.1802 37.0605 26.7848 37.0847 26.404C37.1322 26.0204 37.2175 25.6558 37.3405 25.3101C37.4606 24.9412 37.617 24.5797 37.8098 24.2255C38.0026 23.8714 38.1837 23.5186 38.3532 23.1673C38.5132 23.1241 38.6091 23.136 38.641 23.2029C38.696 23.267 38.776 23.2454 38.881 23.1381C39.1549 22.8685 39.3344 22.5986 39.4194 22.3284C39.5044 22.0583 39.5269 21.7604 39.4871 21.4347C39.5901 20.9262 39.7281 20.4135 39.9009 19.8964C40.0709 19.3562 40.2699 18.8596 40.4978 18.4066C40.7257 17.9537 40.9826 17.5445 41.2684 17.1789C41.5775 16.8105 41.9082 16.5221 42.2605 16.3137C42.5112 16.0469 42.8345 15.7948 43.2305 15.5574C43.6236 15.2968 44.0587 15.0901 44.5359 14.9372C45.0102 14.7611 45.4916 14.6432 45.9801 14.5834C46.4891 14.4974 46.9601 14.487 47.3931 14.5521C47.5151 14.5844 47.5704 14.554 47.559 14.4609C47.5709 14.365 47.6117 14.3128 47.6815 14.3043ZM47.2716 22.8195C47.8219 22.4924 48.4142 22.2192 49.0485 21.9999C49.7032 21.7545 50.2259 21.3953 50.6167 20.9225C50.3062 20.7007 49.872 20.5296 49.3142 20.409C48.7535 20.2651 48.1562 20.2083 47.5224 20.2387C46.8886 20.269 46.2559 20.4055 45.6245 20.6481C45.0134 20.8645 44.5009 21.2106 44.0869 21.6863C43.9986 22.1221 43.9235 22.4737 43.8618 22.741C43.7972 22.985 43.7049 23.2915 43.5847 23.6604C43.6455 23.771 43.7267 23.8555 43.8283 23.9139C43.9503 23.9462 44.0417 24.0177 44.1024 24.1283C44.6033 23.7836 45.1199 23.5669 45.6521 23.4782C46.2048 23.3633 46.7446 23.1437 47.2716 22.8195ZM72.9802 13.2266C73.0234 13.3866 73.039 13.5146 73.0271 13.6105C73.0357 13.6803 73.0326 13.7515 73.0179 13.8241C73.0264 13.8939 73.0364 13.9753 73.0478 14.0684C73.0563 14.1382 73.0938 14.2516 73.1603 14.4088C72.7685 15.2596 72.2655 15.876 71.6511 16.2582C71.0572 16.6142 70.3965 16.9076 69.6692 17.1383C68.9389 17.3458 68.1869 17.5677 67.413 17.8041C66.6624 18.0376 65.9317 18.434 65.2209 18.9933C64.9043 18.914 64.6251 18.9481 64.3834 19.0958C64.165 19.2406 63.8204 19.3182 63.3494 19.3286C63.2269 19.4853 63.0652 19.6113 62.8644 19.7067C62.6607 19.7789 62.4584 19.8627 62.2576 19.9581C62.3763 20.1561 62.4382 20.3728 62.4435 20.6083C62.4691 20.8177 62.5253 20.9879 62.6122 21.1189C63.435 21.089 64.3292 20.9678 65.2949 20.7551C66.2839 20.5396 67.2538 20.3619 68.2048 20.2219C68.2423 20.3353 68.2406 20.4182 68.1998 20.4704C68.1561 20.4994 68.1516 20.559 68.1863 20.6492C68.3634 20.7456 68.5447 20.8768 68.7303 21.043C68.9131 21.1859 69.0959 21.3288 69.2787 21.4718C69.4615 21.6147 69.6414 21.7343 69.8185 21.8307C70.016 21.901 70.2296 21.9103 70.4594 21.8585C70.5752 22.0332 70.659 22.2355 70.7108 22.4653C70.7829 22.669 70.7867 22.8928 70.7221 23.1368C70.3812 23.4383 70.0418 23.7514 69.7037 24.0761C69.3628 24.3776 68.9958 24.6586 68.6027 24.9193C68.2328 25.1771 67.8238 25.4042 67.3756 25.6007C66.9478 25.7712 66.4533 25.8789 65.8922 25.924C65.7758 25.9382 65.6828 25.9496 65.613 25.9582C65.5665 25.9639 65.4924 25.9375 65.3908 25.8791C65.2189 26.0182 64.9557 26.0858 64.601 26.082C64.2696 26.0754 64.018 26.1416 63.8461 26.2807C63.576 26.1957 63.2562 26.1876 62.8868 26.2564C62.5379 26.2991 62.2181 26.291 61.9276 26.2322C61.6152 26.7663 61.3419 27.331 61.1078 27.9263C60.8737 28.5217 60.6788 29.1477 60.523 29.8043C61.3282 29.8238 61.9853 29.7906 62.4943 29.7047C63.0265 29.6159 63.5224 29.5198 63.982 29.4163C64.4387 29.2896 64.9085 29.173 65.3914 29.0667C65.8714 28.9371 66.485 28.8384 67.2323 28.7705C67.6663 28.4577 68.193 28.2279 68.8126 28.0813C69.4526 27.9085 70.0287 27.6963 70.541 27.4447C70.7357 27.4917 70.9142 27.5997 71.0766 27.7687C71.2361 27.9145 71.384 28.0617 71.5202 28.2103C71.6769 28.3328 71.8321 28.4436 71.9859 28.5429C72.1398 28.6421 72.3199 28.6673 72.5265 28.6184C72.6309 28.7001 72.7033 28.8093 72.7437 28.946C72.8044 29.0566 72.8536 29.1687 72.8911 29.2821C72.9286 29.3956 72.9763 29.496 73.0342 29.5834C73.1125 29.6446 73.2201 29.6551 73.3568 29.6147C73.1018 30.4252 72.7673 31.0682 72.3533 31.5439C71.9597 31.9935 71.4849 32.3586 70.9289 32.6391C70.3729 32.9197 69.7415 33.1623 69.0345 33.3669C68.3509 33.5686 67.5886 33.8036 66.7478 34.0718C66.5441 34.144 66.3682 34.1537 66.2201 34.101C66.0748 34.0715 65.9091 34.0682 65.723 34.091C65.2021 34.2728 64.5752 34.4558 63.8421 34.64C63.1091 34.8241 62.3573 34.9516 61.5867 35.0223C60.8162 35.093 60.0706 35.078 59.3499 34.9773C58.632 34.8999 58.025 34.6672 57.5289 34.2793C57.3229 34.1392 57.1721 33.9688 57.0767 33.7679C57.0017 33.541 56.8291 33.385 56.559 33.3C56.4987 33.0005 56.4109 32.6688 56.2956 32.3051C56.1802 31.9415 56.0634 31.5661 55.9452 31.1792C55.8242 30.769 55.7162 30.369 55.6213 29.9792C55.5496 29.5866 55.5287 29.2231 55.5586 28.8889C55.5857 28.5314 55.6869 28.2002 55.8621 27.8955C56.0605 27.5878 56.1049 27.2754 55.9953 26.9583C56.1088 26.9208 56.1714 26.8541 56.1833 26.7582C56.1923 26.639 56.2797 26.5811 56.4454 26.5844C56.5337 26.1486 56.6365 25.7346 56.7538 25.3424C56.8711 24.9503 56.9898 24.5697 57.1099 24.2009C57.2533 23.8291 57.3851 23.4588 57.5052 23.0899C57.6458 22.6949 57.7704 22.2664 57.8792 21.8045C57.5165 21.5419 57.2323 21.2461 57.0268 20.9171C56.8416 20.562 56.6928 20.2142 56.5803 19.8738C56.465 19.5101 56.3612 19.145 56.2692 18.7785C56.1742 18.3887 56.0444 18.0031 55.8797 17.6219C56.0696 17.2445 56.3146 16.9311 56.6147 16.6819C56.9351 16.4065 57.2846 16.1749 57.663 15.9869C58.0414 15.7989 58.4575 15.6299 58.9114 15.4799C59.3653 15.3299 59.841 15.1654 60.3386 14.9864C61.2321 14.5701 62.0295 14.2364 62.7308 13.9853C63.4553 13.7313 64.1608 13.5151 64.8473 13.3366C65.5543 13.132 66.2859 12.9362 67.0422 12.7492C67.7985 12.5621 68.6539 12.3158 69.6082 12.0101C69.8432 12.1938 70.0537 12.2743 70.2398 12.2515C70.3073 12.0308 70.4048 11.9598 70.5325 12.0386C70.6807 12.0913 70.7303 12.0144 70.6814 11.8079C70.9624 12.1749 71.2945 12.4766 71.6777 12.7131C72.0812 12.9234 72.5154 13.0946 72.9802 13.2266ZM80.9236 25.7488C80.72 25.821 80.5844 25.9674 80.517 26.1882C80.4467 26.3857 80.3778 26.5948 80.3104 26.8156C80.2663 27.0335 80.209 27.2412 80.1388 27.4387C80.0889 27.6101 79.9825 27.7058 79.8197 27.7257C79.8192 27.9147 79.7694 28.0861 79.6701 28.2399C79.5941 28.3909 79.5196 28.5535 79.4465 28.7277C79.3705 28.8787 79.3206 29.0501 79.2969 29.2419C79.2703 29.4104 79.3178 29.6053 79.4393 29.8266C79.2703 29.9889 79.1782 30.2009 79.163 30.4625C79.1477 30.7241 79.1195 30.9755 79.0782 31.2167C79.0601 31.455 78.9913 31.6641 78.8716 31.8441C78.752 32.024 78.5046 32.1251 78.1295 32.1474C78.0711 32.249 78.0666 32.3086 78.116 32.3262C78.1654 32.3437 78.2102 32.4209 78.2506 32.5576C77.989 32.5424 77.7927 32.5782 77.6616 32.6651C77.5567 32.7724 77.4126 32.8491 77.2293 32.8951C76.7702 32.8096 76.3681 32.6109 76.023 32.299C75.7011 31.9842 75.3982 31.6317 75.1143 31.2414C74.8508 30.825 74.599 30.4072 74.3588 29.988C74.1418 29.5659 73.932 29.202 73.7293 28.8962C73.7678 28.6318 73.7495 28.3861 73.6745 28.1591C73.5966 27.9089 73.4896 27.7095 73.3533 27.5609C74.1971 25.0019 75.1257 22.2673 76.139 19.357C77.1523 16.4467 78.1001 13.5799 78.9823 10.7564C79.543 10.9003 80.0964 11.0805 80.6423 11.297C81.2087 11.4875 81.7227 11.7315 82.1841 12.0292C82.6688 12.3241 83.0909 12.6856 83.4503 13.1139C83.8068 13.5189 84.0658 13.9949 84.2272 14.5418C84.1977 14.6871 84.1467 14.7524 84.074 14.7376C84.0218 14.6968 83.9767 14.7141 83.9387 14.7896C84.046 14.8945 84.1025 14.9703 84.1082 15.0168C84.1372 15.0605 84.1429 15.107 84.1253 15.1564C84.131 15.2029 84.1395 15.2727 84.1509 15.3658C84.1595 15.4356 84.2072 15.536 84.2941 15.667C84.1981 15.6551 84.1298 15.6753 84.0889 15.7275C84.0714 15.7769 84.0016 15.7854 83.8796 15.7532C84.0039 15.9977 84.0528 16.2042 84.0262 16.3727C84.0229 16.5384 83.9949 16.6953 83.9422 16.8435C83.8866 16.9683 83.8456 17.115 83.819 17.2836C83.7895 17.4289 83.8239 17.6135 83.9222 17.8376C83.8524 17.8462 83.7971 17.8766 83.7563 17.9288C83.7358 17.9549 83.7169 17.9926 83.6993 18.042C83.6789 18.0681 83.6482 18.1073 83.6074 18.1595C83.587 18.1856 83.5405 18.1913 83.4678 18.1766C83.6003 18.6799 83.6862 19.1888 83.7256 19.7035C83.7649 20.2181 83.8057 20.7444 83.848 21.2823C83.9106 21.7941 83.9892 22.3394 84.0836 22.9182C84.1752 23.4737 84.3278 24.0453 84.5414 24.6331C85.3191 24.042 85.9053 23.3327 86.2999 22.5052C86.7177 21.6749 87.0195 20.7643 87.2051 19.7734C87.4141 18.7798 87.5331 17.7262 87.5621 16.6129C87.5911 15.4996 87.6289 14.3616 87.6755 13.1988C87.8592 12.9638 87.9908 12.688 88.0701 12.3713C88.1494 12.0547 88.2156 11.7278 88.2688 11.3907C88.3191 11.0304 88.3709 10.6816 88.4241 10.3446C88.4744 9.98421 88.5523 9.65591 88.6577 9.35966C89.0124 9.36348 89.3174 9.4442 89.5728 9.60184C89.8487 9.73337 90.1041 9.891 90.3391 10.0747C90.5713 10.2352 90.815 10.3943 91.0705 10.5519C91.323 10.6863 91.6266 10.7554 91.9813 10.7592C92.3089 11.1205 92.6118 11.4731 92.89 11.8168C93.1682 12.1606 93.3678 12.5375 93.4888 12.9477C93.3953 13.1481 93.3279 13.3689 93.2865 13.61C93.2685 13.8484 93.2388 14.0881 93.1975 14.3293C93.1562 14.5705 93.0902 14.8029 92.9995 15.0265C92.9059 15.2268 92.763 15.4096 92.5707 15.5748C92.575 16.1882 92.5503 16.758 92.4966 17.284C92.4633 17.7839 92.4184 18.2853 92.3619 18.7881C92.3286 19.288 92.3099 19.8098 92.3056 20.3534C92.2984 20.8737 92.3449 21.4465 92.4451 22.0718C92.3244 22.6297 92.1965 23.2238 92.0611 23.8543C91.9258 24.4848 91.8299 25.0515 91.7733 25.5542C91.4381 25.9022 91.1915 26.2984 91.0333 26.7428C90.8752 27.1872 90.7055 27.633 90.5241 28.0802C90.4424 28.1846 90.3871 28.215 90.3581 28.1713C90.3292 28.1277 90.2435 28.1027 90.1011 28.0965C90.1357 28.1868 90.1443 28.2565 90.1267 28.3059C90.1091 28.3553 90.0799 28.4061 90.0391 28.4583C90.0187 28.4844 90.0011 28.5338 89.9864 28.6064C89.9949 28.6762 90.0296 28.7664 90.0903 28.8771C89.7817 29.0565 89.5151 29.2898 89.2906 29.5771C89.066 29.8643 88.8153 30.1311 88.5385 30.3775C88.2849 30.621 87.9531 30.8033 87.5429 30.9244C87.1559 31.0426 86.6225 31.0252 85.9427 30.8723C84.9034 30.2912 83.956 29.5925 83.1005 28.7763C82.2683 27.9573 81.5427 26.9481 80.9236 25.7488ZM126.044 23.6972C125.953 24.1098 125.793 24.5425 125.565 24.9954C125.358 25.4222 125.088 25.8213 124.755 26.1925C124.443 26.5377 124.079 26.842 123.663 27.1055C123.246 27.3689 122.795 27.5422 122.31 27.6253C121.999 27.5925 121.779 27.5367 121.652 27.4579C121.55 27.3995 121.437 27.3425 121.312 27.2869C121.237 27.249 121.162 27.2226 121.09 27.2079C121.038 27.167 120.987 27.1378 120.937 27.1203L120.497 26.997L120.581 26.5263C120.605 26.3345 120.576 26.1964 120.495 26.1118C120.411 26.0041 120.253 25.8699 120.021 25.7094C119.943 25.6482 119.864 25.587 119.786 25.5257C119.708 25.4645 119.641 25.4018 119.586 25.3377L118.911 24.7473L119.824 24.3877C120.385 24.1536 120.744 23.8973 120.898 23.6186C121.077 23.3371 121.105 22.8967 120.985 22.2976C120.508 22.2615 120.111 22.2982 119.794 22.4079C119.5 22.5147 119.196 22.6346 118.882 22.7675C118.477 22.9351 118.06 23.0924 117.629 23.2396C117.219 23.3606 116.758 23.4525 116.246 23.5151C116.06 23.5379 115.885 23.5592 115.723 23.5792C115.557 23.5758 115.379 23.5739 115.191 23.5735L114.833 23.5464C114.755 23.2962 114.692 23.1623 114.642 23.1447C114.59 23.1039 114.538 23.063 114.486 23.0222C114.355 22.9201 114.209 22.7846 114.046 22.6156C113.904 22.4204 113.85 22.1674 113.882 21.8564C113.74 21.6612 113.645 21.4604 113.596 21.2539C113.491 21.5501 113.422 21.8538 113.389 22.1647L113.292 22.5308L112.952 22.6433C112.908 22.6722 112.88 22.7347 112.868 22.8306C112.854 22.9032 112.849 22.9628 112.855 23.0093L112.753 23.6239C112.712 23.6761 112.671 23.7283 112.63 23.7806C112.587 23.8095 112.544 23.8501 112.504 23.9023C112.483 24.1174 112.45 24.3339 112.406 24.5518C112.362 24.7697 112.316 24.976 112.269 25.1707C112.19 25.4873 112.122 25.8026 112.066 26.1164C112.031 26.4041 112.041 26.6861 112.099 26.9625L112.006 27.3634C111.907 27.5172 111.793 27.6492 111.665 27.7593C111.534 27.8462 111.403 27.9331 111.272 28.02C111.231 28.0722 111.167 28.1273 111.08 28.1852C111.013 28.217 110.957 28.2474 110.914 28.2763L110.856 28.673L110.446 28.794C110.196 28.8719 110.014 28.9296 109.9 28.9671C109.81 29.0017 109.695 29.0276 109.556 29.0447L109.202 29.0525C108.921 28.8744 108.703 28.7358 108.549 28.6366C108.393 28.5141 108.214 28.406 108.014 28.3125C107.77 28.059 107.628 27.8638 107.588 27.7271C107.548 27.5903 107.509 27.4652 107.471 27.3518C107.408 27.2179 107.37 27.1044 107.359 27.0114C107.324 26.9211 107.281 26.8556 107.228 26.8148L106.724 26.4516L107.069 26.0905L107.031 25.493C107.351 24.2496 107.7 23.0499 108.078 21.8938C108.48 20.7349 108.89 19.5514 109.308 18.3431C109.449 17.9481 109.578 17.5545 109.695 17.1624C109.836 16.7674 109.976 16.3724 110.117 15.9774C110.085 15.9104 110.063 15.8304 110.052 15.7374C110.041 15.6443 110.051 15.5368 110.083 15.4148C110.291 14.9879 110.458 14.6134 110.583 14.291C110.706 13.9454 110.829 13.5997 110.952 13.2541C111.09 12.8358 111.229 12.4292 111.37 12.0342C111.533 11.6364 111.742 11.2212 111.996 10.7887L112.525 10.4761C112.592 10.4443 112.67 10.411 112.761 10.3764C112.848 10.3185 112.95 10.2824 113.066 10.2682L113.598 10.2739C114.212 9.89172 114.731 9.4032 115.154 8.80834C115.574 8.19021 115.993 7.46596 116.411 6.63561L116.7 6.10436L117.188 6.328C117.313 6.38355 117.485 6.43341 117.702 6.47758C117.917 6.49848 118.146 6.52959 118.387 6.5709C118.817 6.6127 119.225 6.66898 119.612 6.73974C119.998 6.8105 120.322 6.94797 120.583 7.15213C120.768 7.50727 120.884 7.77647 120.93 7.95973C120.976 8.143 121.034 8.32483 121.103 8.50525C121.221 8.89219 121.328 9.28056 121.423 9.67035C121.541 10.0573 121.641 10.4936 121.724 10.9793C121.889 11.3606 122.031 11.7447 122.149 12.1316C122.287 12.4924 122.416 12.8663 122.534 13.2533C122.719 13.7974 122.902 14.3298 123.084 14.8507C123.263 15.3482 123.474 15.8183 123.717 16.2608C123.903 16.238 124.021 16.2354 124.07 16.2529C124.181 16.1922 124.293 16.143 124.406 16.1055C124.543 16.0652 124.691 16.0234 124.851 15.9802L125.231 15.8983L125.413 16.2302C125.451 16.3437 125.581 16.4458 125.805 16.5365C126.11 16.5227 126.34 16.5654 126.493 16.6647C126.644 16.7407 126.785 16.8297 126.916 16.9318C127.02 17.0134 127.122 17.0718 127.221 17.107L127.77 17.2523L127.555 17.8099C127.373 18.2571 127.086 18.7055 126.692 19.1551C126.319 19.5786 125.88 19.951 125.377 20.2724C125.417 20.4091 125.446 20.5473 125.463 20.6869C125.5 20.8004 125.551 20.924 125.614 21.0579C125.733 21.4449 125.841 21.8449 125.938 22.2579C126.036 22.671 126.089 23.1014 126.096 23.5491L126.044 23.6972ZM115.22 18.8946C115.912 18.7626 116.535 18.6392 117.087 18.5244C117.66 18.3834 118.287 18.2004 118.968 17.9754C118.72 17.2974 118.457 16.5976 118.18 15.8759C117.9 15.131 117.609 14.3991 117.309 13.6803L117.142 14.0549C116.737 14.6004 116.35 15.2026 115.982 15.8616C115.637 16.5177 115.347 17.1318 115.11 17.7039C114.996 17.9303 114.882 18.1568 114.768 18.3832C114.654 18.6097 114.551 18.8347 114.461 19.0584C114.598 19.018 114.724 18.9907 114.84 18.9765C114.98 18.9594 115.106 18.9321 115.22 18.8946ZM135.082 19.1199C134.878 19.1921 134.743 19.3385 134.675 19.5593C134.605 19.7568 134.536 19.9659 134.469 20.1867C134.425 20.4046 134.367 20.6123 134.297 20.8098C134.247 20.9812 134.141 21.0769 133.978 21.0968C133.978 21.2858 133.928 21.4571 133.828 21.611C133.752 21.7619 133.678 21.9245 133.605 22.0988C133.529 22.2498 133.479 22.4211 133.455 22.6129C133.429 22.7815 133.476 22.9764 133.598 23.1976C133.429 23.36 133.336 23.572 133.321 23.8336C133.306 24.0952 133.278 24.3466 133.236 24.5877C133.218 24.8261 133.15 25.0352 133.03 25.2151C132.91 25.3951 132.663 25.4962 132.288 25.5185C132.229 25.6201 132.225 25.6797 132.274 25.6972C132.324 25.7148 132.369 25.792 132.409 25.9287C132.147 25.9135 131.951 25.9493 131.82 26.0362C131.715 26.1435 131.571 26.2202 131.388 26.2662C130.929 26.1807 130.526 25.982 130.181 25.6701C129.859 25.3553 129.557 25.0027 129.273 24.6125C129.009 24.1961 128.757 23.7783 128.517 23.359C128.3 22.937 128.09 22.573 127.888 22.2673C127.926 22.0028 127.908 21.7571 127.833 21.5302C127.755 21.28 127.648 21.0806 127.512 20.932C128.355 18.373 129.284 15.6384 130.297 12.7281C131.311 9.81778 132.258 6.95093 133.141 4.12751C133.701 4.2714 134.255 4.4516 134.801 4.66812C135.367 4.85853 135.881 5.10259 136.342 5.40029C136.827 5.69515 137.249 6.05671 137.609 6.48497C137.965 6.88996 138.224 7.36593 138.385 7.91288C138.356 8.05816 138.305 8.12343 138.232 8.10871C138.18 8.06788 138.135 8.08521 138.097 8.16069C138.204 8.26562 138.261 8.34135 138.267 8.38788C138.295 8.43156 138.301 8.47809 138.284 8.52746C138.289 8.57399 138.298 8.64378 138.309 8.73684C138.318 8.80663 138.365 8.90705 138.452 9.03809C138.356 9.02621 138.288 9.04639 138.247 9.09861C138.23 9.14798 138.16 9.15653 138.038 9.12424C138.162 9.36875 138.211 9.57528 138.185 9.74382C138.181 9.90951 138.153 10.0664 138.101 10.2145C138.045 10.3394 138.004 10.4861 137.977 10.6547C137.948 10.7999 137.982 10.9846 138.081 11.2087C138.011 11.2173 137.955 11.2476 137.915 11.2999C137.894 11.326 137.875 11.3637 137.858 11.4131C137.837 11.4392 137.807 11.4784 137.766 11.5306C137.745 11.5567 137.699 11.5624 137.626 11.5477C137.759 12.0509 137.844 12.5599 137.884 13.0746C137.923 13.5892 137.964 14.1155 138.006 14.6534C138.069 15.1652 138.147 15.7105 138.242 16.2892C138.334 16.8447 138.486 17.4164 138.7 18.0041C139.477 17.4131 140.064 16.7038 140.458 15.8763C140.876 15.0459 141.178 14.1354 141.363 13.1445C141.572 12.1508 141.691 11.0973 141.72 9.98399C141.749 8.87065 141.787 7.73263 141.834 6.56992C142.018 6.33492 142.149 6.05908 142.228 5.74242C142.308 5.42575 142.374 5.09887 142.427 4.76179C142.477 4.40144 142.529 4.05272 142.582 3.71564C142.633 3.35529 142.711 3.02699 142.816 2.73074C143.171 2.73456 143.476 2.81528 143.731 2.97292C144.007 3.10444 144.262 3.26208 144.497 3.44583C144.73 3.60631 144.973 3.76537 145.229 3.92301C145.481 4.05738 145.785 4.12647 146.14 4.13029C146.467 4.49161 146.77 4.84414 147.048 5.18789C147.326 5.53163 147.526 5.90861 147.647 6.31882C147.554 6.51917 147.486 6.73993 147.445 6.98111C147.427 7.21945 147.397 7.4592 147.356 7.70038C147.314 7.94157 147.248 8.17396 147.158 8.39758C147.064 8.59792 146.921 8.7807 146.729 8.94591C146.733 9.55932 146.709 10.129 146.655 10.6551C146.622 11.155 146.577 11.6564 146.52 12.1591C146.487 12.6591 146.468 13.1809 146.464 13.7245C146.457 14.2448 146.503 14.8176 146.603 15.4429C146.483 16.0008 146.355 16.5949 146.219 17.2254C146.084 17.8559 145.988 18.4225 145.932 18.9253C145.596 19.2733 145.35 19.6695 145.192 20.1139C145.034 20.5582 144.864 21.004 144.682 21.4513C144.601 21.5557 144.545 21.5861 144.516 21.5424C144.488 21.4987 144.402 21.4738 144.259 21.4676C144.294 21.5578 144.303 21.6276 144.285 21.677C144.267 21.7264 144.238 21.7772 144.197 21.8294C144.177 21.8555 144.159 21.9049 144.145 21.9775C144.153 22.0473 144.188 22.1375 144.249 22.2481C143.94 22.4276 143.673 22.6609 143.449 22.9482C143.224 23.2354 142.974 23.5022 142.697 23.7486C142.443 23.9921 142.111 24.1744 141.701 24.2955C141.314 24.4137 140.781 24.3963 140.101 24.2434C139.062 23.6622 138.114 22.9636 137.259 22.1474C136.427 21.3284 135.701 20.3192 135.082 19.1199ZM164.926 12.3502C164.917 12.4694 164.906 12.5769 164.895 12.6728C164.88 12.7454 164.865 12.8181 164.85 12.8907C164.836 12.9634 164.835 13.0578 164.85 13.1742C164.861 13.2672 164.877 13.3952 164.897 13.558C164.35 14.8764 163.592 16.0199 162.625 16.9884C161.68 17.954 160.608 18.8408 159.408 19.6488C158.229 20.4307 156.986 21.1732 155.679 21.8762C154.369 22.5561 153.1 23.2781 151.871 24.0424C151.295 23.9712 150.837 23.7912 150.494 23.5026C150.175 23.211 149.909 22.8659 149.695 22.467C149.501 22.0421 149.338 21.578 149.205 21.0748C149.093 20.5454 148.98 20.0044 148.865 19.4517C148.903 19.1873 148.971 18.9665 149.067 18.7894C149.184 18.5862 149.223 18.3218 149.183 17.9961C149.295 17.3685 149.408 16.7525 149.523 16.1481C149.638 15.5437 149.682 14.9362 149.654 14.3257C149.701 14.131 149.814 13.9874 149.991 13.8948C149.971 12.7639 149.833 11.6356 149.577 10.5099C149.341 9.35814 149.023 8.29915 148.621 7.33298C148.616 7.09749 148.619 6.93179 148.631 6.83589C148.664 6.71388 148.654 6.63245 148.601 6.59162C148.555 6.40836 148.602 6.30818 148.742 6.2911C148.905 6.27117 149.067 6.25123 149.23 6.2313C149.188 5.88234 149.075 5.54193 148.893 5.21005C148.734 4.87533 148.569 4.49408 148.399 4.06631C148.519 3.69742 148.582 3.34728 148.589 3.01589C148.593 2.66123 148.66 2.34599 148.792 2.07015C150.096 2.31188 151.353 2.64214 152.561 3.06095C153.793 3.47691 154.982 3.7445 156.13 3.86372C157.042 4.36608 157.977 4.86558 158.935 5.36224C159.89 5.83563 160.772 6.38878 161.582 7.02169C162.388 7.63133 163.092 8.3599 163.691 9.2074C164.291 10.0549 164.702 11.1025 164.926 12.3502ZM156.89 15.2817C157.356 15.0358 157.809 14.7797 158.249 14.5134C158.712 14.2442 159.125 13.9575 159.489 13.6532C159.874 13.3228 160.208 12.9631 160.491 12.5743C160.774 12.1855 160.99 11.734 161.139 11.2198C160.966 10.9577 160.75 10.7363 160.491 10.5554C160.23 10.3512 159.972 10.1703 159.717 10.0127C159.458 9.83175 159.2 9.65085 158.942 9.46995C158.707 9.2862 158.501 9.05166 158.324 8.76631C158.016 8.7568 157.739 8.70812 157.492 8.62028C157.242 8.50917 156.994 8.40969 156.747 8.32185C156.521 8.20789 156.272 8.10841 156.002 8.02342C155.755 7.93557 155.467 7.89995 155.139 7.91655C154.596 7.72329 154.108 7.59413 153.675 7.52907C153.265 7.46115 152.944 7.34696 152.712 7.18647C152.549 7.20641 152.425 7.25696 152.341 7.33814C152.682 8.1937 152.959 9.00984 153.172 9.78657C153.382 10.54 153.536 11.3123 153.633 12.1032C153.75 12.8681 153.812 13.6633 153.818 14.489C153.825 15.3146 153.805 16.2143 153.759 17.188C153.989 17.1363 154.193 17.0641 154.37 16.9716C154.568 16.8529 154.754 16.7356 154.929 16.6198C155.127 16.5011 155.327 16.3941 155.527 16.2986C155.749 16.1771 156.009 16.0862 156.309 16.0259C156.361 15.8778 156.44 15.7501 156.545 15.6428C156.673 15.5327 156.788 15.4123 156.89 15.2817ZM85.9933 42.8612C86.9847 42.8579 87.8813 42.9489 88.6831 43.1341C89.485 43.3193 90.182 43.6118 90.774 44.0116C91.2174 44.5476 91.6432 45.133 92.0515 45.7678C92.483 46.3998 92.8258 47.078 93.0798 47.8025C93.3541 48.5009 93.5267 49.2354 93.5974 50.0059C93.6913 50.7736 93.6239 51.5729 93.395 52.4038C92.8229 53.3238 92.081 54.1112 91.1694 54.7659C90.2782 55.3944 89.2942 55.9399 88.2174 56.4023C87.1406 56.8646 86.0116 57.2862 84.8304 57.6669C83.6724 58.0447 82.5377 58.4197 81.4262 58.7919C81.515 59.3241 81.5847 59.8941 81.6355 60.5018C81.7067 61.0834 81.7211 61.6838 81.6789 62.3029C81.657 62.8958 81.5755 63.4843 81.4345 64.0683C81.2935 64.6522 81.0769 65.1982 80.7849 65.7062C80.3894 65.7546 79.988 65.851 79.5807 65.9953C79.1761 66.1628 78.8153 66.3015 78.4982 66.4111C78.3239 66.338 78.1613 66.2635 78.0103 66.1875C77.8855 66.1319 77.7053 66.1068 77.4698 66.112C77.4879 65.8736 77.4012 65.6481 77.2099 65.4354C77.0158 65.1994 76.8216 64.9635 76.6274 64.7275C76.4332 64.4915 76.287 64.2615 76.1888 64.0374C76.1138 63.8104 76.203 63.5752 76.4566 63.3317C76.2738 63.1887 76.1667 62.9893 76.1354 62.7334C76.2641 62.4343 76.3567 62.0334 76.4132 61.5306C76.493 61.025 76.5393 60.5353 76.5522 60.0614C76.5854 59.5615 76.5546 59.1167 76.4596 58.7269C76.3647 58.3371 76.0965 58.0747 75.6549 57.9399C75.6725 57.8905 75.7162 57.8616 75.786 57.853C75.8558 57.8445 75.9241 57.8243 75.9911 57.7925C75.7879 57.6757 75.6474 57.4922 75.5695 57.242C75.5149 56.9889 75.4065 56.7779 75.2441 56.6089C75.2764 56.4868 75.2985 56.3779 75.3103 56.282C75.3222 56.1861 75.3994 56.1412 75.5418 56.1474C75.4208 55.7372 75.3723 55.3417 75.3966 54.9609C75.4441 54.5773 75.5293 54.2127 75.6523 53.8671C75.7724 53.4982 75.9289 53.1367 76.1217 52.7825C76.3144 52.4283 76.4956 52.0756 76.6651 51.7242C76.8251 51.6811 76.921 51.6929 76.9528 51.7599C77.0079 51.824 77.0879 51.8024 77.1928 51.6951C77.4668 51.4254 77.6462 51.1555 77.7312 50.8854C77.8162 50.6152 77.8388 50.3173 77.7989 49.9916C77.902 49.4832 78.0399 48.9704 78.2128 48.4534C78.3828 47.9131 78.5817 47.4165 78.8096 46.9636C79.0375 46.5107 79.2944 46.1014 79.5802 45.7359C79.8893 45.3675 80.22 45.0791 80.5723 44.8707C80.823 44.6038 81.1463 44.3518 81.5423 44.1144C81.9354 43.8538 82.3706 43.647 82.8477 43.4942C83.322 43.3181 83.8034 43.2001 84.292 43.1403C84.8009 43.0544 85.2719 43.044 85.7049 43.109C85.8269 43.1413 85.8822 43.1109 85.8708 43.0179C85.8827 42.922 85.9235 42.8698 85.9933 42.8612ZM85.5834 51.3764C86.1337 51.0494 86.726 50.7762 87.3603 50.5568C88.015 50.3114 88.5378 49.9523 88.9285 49.4794C88.618 49.2577 88.1839 49.0865 87.626 48.9659C87.0653 48.822 86.4681 48.7653 85.8342 48.7956C85.2004 48.826 84.5678 48.9624 83.9363 49.205C83.3253 49.4215 82.8127 49.7675 82.3987 50.2432C82.3104 50.6791 82.2354 51.0306 82.1736 51.2979C82.1091 51.542 82.0167 51.8484 81.8966 52.2173C81.9573 52.3279 82.0385 52.4125 82.1401 52.4709C82.2621 52.5031 82.3535 52.5746 82.4143 52.6852C82.9152 52.3406 83.4317 52.1239 83.964 52.0351C84.5166 51.9202 85.0564 51.7007 85.5834 51.3764ZM111.628 58.7079C111.537 59.1205 111.377 59.5533 111.149 60.0062C110.942 60.433 110.672 60.832 110.34 61.2033C110.028 61.5484 109.663 61.8527 109.247 62.1162C108.831 62.3797 108.38 62.5529 107.894 62.636C107.583 62.6032 107.364 62.5474 107.236 62.4686C107.134 62.4102 107.021 62.3532 106.896 62.2977C106.821 62.2597 106.747 62.2333 106.674 62.2186C106.622 62.1778 106.571 62.1486 106.522 62.131L106.082 62.0078L106.166 61.5371C106.189 61.3453 106.161 61.2071 106.079 61.1226C105.995 61.0148 105.837 60.8807 105.605 60.7202C105.527 60.6589 105.449 60.5977 105.37 60.5365C105.292 60.4752 105.225 60.4125 105.17 60.3484L104.496 59.758L105.408 59.3984C105.97 59.1644 106.328 58.908 106.483 58.6294C106.661 58.3478 106.689 57.9075 106.569 57.3083C106.092 57.2722 105.695 57.309 105.378 57.4186C105.084 57.5254 104.78 57.6453 104.466 57.7782C104.061 57.9458 103.644 58.1032 103.213 58.2503C102.803 58.3714 102.342 58.4632 101.83 58.5259C101.644 58.5486 101.47 58.57 101.307 58.5899C101.141 58.5866 100.964 58.5847 100.775 58.5842L100.417 58.5571C100.339 58.3069 100.276 58.173 100.226 58.1555C100.174 58.1146 100.122 58.0738 100.07 58.033C99.9392 57.9309 99.7927 57.7953 99.6304 57.6263C99.4884 57.4312 99.4339 57.1781 99.4666 56.8671C99.3247 56.672 99.2293 56.4712 99.1804 56.2646C99.075 56.5609 99.0059 56.8645 98.9731 57.1755L98.8762 57.5415L98.5358 57.654C98.4921 57.683 98.4643 57.7454 98.4525 57.8413C98.4377 57.914 98.4332 57.9735 98.4389 58.0201L98.3371 58.6346C98.2962 58.6869 98.2554 58.7391 98.2146 58.7913C98.1709 58.8203 98.1286 58.8609 98.0878 58.9131C98.0669 59.1282 98.0344 59.3447 97.9902 59.5626C97.946 59.7805 97.9004 59.9868 97.8534 60.1814C97.7741 60.4981 97.7065 60.8133 97.6504 61.1272C97.6148 61.4149 97.6257 61.6969 97.6831 61.9732L97.5905 62.3741C97.4913 62.528 97.3776 62.6599 97.2494 62.7701C97.1184 62.857 96.9873 62.9438 96.8563 63.0307C96.8154 63.0829 96.7513 63.138 96.664 63.1959C96.597 63.2277 96.5417 63.2581 96.498 63.2871L96.4403 63.6837L96.0301 63.8048C95.7799 63.8826 95.5981 63.9403 95.4846 63.9778C95.3944 64.0125 95.2795 64.0383 95.1399 64.0554L94.7867 64.0632C94.5052 63.8852 94.2875 63.7465 94.1337 63.6473C93.977 63.5248 93.7985 63.4168 93.5981 63.3232C93.3546 63.0697 93.2127 62.8746 93.1723 62.7378C93.132 62.6011 93.093 62.476 93.0555 62.3625C92.9919 62.2286 92.9544 62.1152 92.943 62.0221C92.9084 61.9319 92.8649 61.8664 92.8127 61.8255L92.3078 61.4623L92.6532 61.1013L92.6155 60.5038C92.9356 59.2604 93.2846 58.0606 93.6626 56.9046C94.0638 55.7457 94.4738 54.5621 94.8926 53.3538C95.0332 52.9588 95.1621 52.5653 95.2794 52.1731C95.4199 51.7781 95.5605 51.3831 95.701 50.9881C95.6692 50.9212 95.6476 50.8412 95.6362 50.7481C95.6249 50.6551 95.6353 50.5475 95.6676 50.4255C95.8751 49.9987 96.0418 49.6241 96.1676 49.3017C96.2906 48.9561 96.4135 48.6105 96.5365 48.2649C96.6742 47.8466 96.8134 47.44 96.9539 47.045C97.1177 46.6471 97.3266 46.2319 97.5807 45.7994L98.1091 45.4868C98.1761 45.455 98.2546 45.4218 98.3448 45.3871C98.4322 45.3292 98.534 45.2931 98.6504 45.2789L99.1823 45.2846C99.7967 44.9025 100.315 44.414 100.738 43.8191C101.159 43.201 101.578 42.4767 101.996 41.6464L102.285 41.1151L102.773 41.3387C102.897 41.3943 103.069 41.4442 103.287 41.4883C103.502 41.5092 103.73 41.5403 103.971 41.5817C104.401 41.6235 104.809 41.6797 105.196 41.7505C105.582 41.8213 105.906 41.9587 106.167 42.1629C106.352 42.518 106.468 42.7872 106.514 42.9705C106.56 43.1537 106.618 43.3356 106.687 43.516C106.805 43.9029 106.912 44.2913 107.007 44.6811C107.125 45.068 107.226 45.5044 107.309 45.9901C107.473 46.3713 107.615 46.7554 107.733 47.1423C107.872 47.5032 108 47.8771 108.118 48.264C108.303 48.8081 108.486 49.3406 108.668 49.8614C108.847 50.359 109.058 50.829 109.301 51.2715C109.487 51.2487 109.605 51.2461 109.654 51.2637C109.765 51.2029 109.877 51.1538 109.99 51.1163C110.127 51.0759 110.276 51.0342 110.436 50.991L110.815 50.9091L110.997 51.241C111.035 51.3544 111.165 51.4565 111.389 51.5472C111.694 51.5335 111.924 51.5762 112.078 51.6754C112.229 51.7514 112.369 51.8404 112.5 51.9425C112.604 52.0242 112.706 52.0826 112.805 52.1177L113.354 52.263L113.139 52.8206C112.957 53.2679 112.67 53.7163 112.276 54.1658C111.903 54.5893 111.465 54.9618 110.961 55.2832C111.001 55.4199 111.03 55.5581 111.047 55.6976C111.085 55.8111 111.135 55.9348 111.199 56.0687C111.317 56.4556 111.425 56.8556 111.523 57.2687C111.62 57.6817 111.673 58.1121 111.681 58.5598L111.628 58.7079ZM100.804 53.9053C101.496 53.7734 102.119 53.65 102.671 53.5351C103.245 53.3941 103.871 53.2111 104.552 52.9861C104.304 52.3082 104.041 51.6083 103.764 50.8867C103.484 50.1417 103.194 49.4099 102.893 48.691L102.727 49.0656C102.321 49.6111 101.934 50.2134 101.566 50.8723C101.222 51.5284 100.931 52.1425 100.694 52.7146C100.58 52.9411 100.466 53.1675 100.352 53.394C100.238 53.6205 100.136 53.8455 100.045 54.0691C100.182 54.0288 100.308 54.0015 100.425 53.9872C100.564 53.9701 100.691 53.9428 100.804 53.9053ZM124.797 38.1116C125.789 38.1084 126.685 38.1993 127.487 38.3845C128.289 38.5697 128.986 38.8622 129.578 39.262C130.022 39.798 130.447 40.3835 130.856 41.0182C131.287 41.6502 131.63 42.3284 131.884 43.0529C132.158 43.7513 132.331 44.4858 132.402 45.2564C132.496 46.0241 132.428 46.8233 132.199 47.6542C131.627 48.5742 130.885 49.3616 129.974 50.0163C129.082 50.6448 128.098 51.1903 127.022 51.6527C125.945 52.115 124.816 52.5366 123.635 52.9173C122.477 53.2951 121.342 53.6702 120.23 54.0423C120.319 54.5745 120.389 55.1445 120.44 55.7522C120.511 56.3338 120.525 56.9342 120.483 57.5533C120.461 58.1463 120.38 58.7347 120.239 59.3187C120.098 59.9026 119.881 60.4486 119.589 60.9566C119.194 61.005 118.792 61.1014 118.385 61.2457C117.98 61.4133 117.619 61.5519 117.302 61.6615C117.128 61.5884 116.965 61.5139 116.815 61.4379C116.69 61.3823 116.509 61.3572 116.274 61.3624C116.292 61.124 116.205 60.8985 116.014 60.6858C115.82 60.4498 115.626 60.2139 115.432 59.9779C115.237 59.7419 115.091 59.5119 114.993 59.2878C114.918 59.0609 115.007 58.8256 115.261 58.5821C115.078 58.4392 114.971 58.2397 114.94 57.9838C115.068 57.6847 115.161 57.2838 115.217 56.781C115.297 56.2754 115.343 55.7857 115.356 55.3119C115.39 54.8119 115.359 54.3671 115.264 53.9773C115.169 53.5875 114.901 53.3252 114.459 53.1903C114.477 53.1409 114.52 53.112 114.59 53.1034C114.66 53.0949 114.728 53.0747 114.795 53.0429C114.592 52.9261 114.452 52.7426 114.374 52.4924C114.319 52.2393 114.211 52.0283 114.048 51.8593C114.081 51.7372 114.103 51.6283 114.115 51.5324C114.126 51.4365 114.204 51.3916 114.346 51.3978C114.225 50.9876 114.177 50.5921 114.201 50.2113C114.248 49.8277 114.333 49.4631 114.456 49.1175C114.577 48.7486 114.733 48.3871 114.926 48.0329C115.119 47.6787 115.3 47.326 115.469 46.9747C115.629 46.9315 115.725 46.9433 115.757 47.0103C115.812 47.0744 115.892 47.0528 115.997 46.9455C116.271 46.6758 116.45 46.4059 116.535 46.1358C116.62 45.8657 116.643 45.5677 116.603 45.242C116.706 44.7336 116.844 44.2208 117.017 43.7038C117.187 43.1635 117.386 42.6669 117.614 42.214C117.842 41.7611 118.099 41.3518 118.384 40.9863C118.693 40.6179 119.024 40.3295 119.376 40.1211C119.627 39.8543 119.95 39.6022 120.346 39.3648C120.74 39.1042 121.175 38.8974 121.652 38.7446C122.126 38.5685 122.608 38.4505 123.096 38.3907C123.605 38.3048 124.076 38.2944 124.509 38.3594C124.631 38.3917 124.686 38.3614 124.675 38.2683C124.687 38.1724 124.728 38.1202 124.797 38.1116ZM124.388 46.6269C124.938 46.2998 125.53 46.0266 126.164 45.8073C126.819 45.5618 127.342 45.2027 127.733 44.7298C127.422 44.5081 126.988 44.3369 126.43 44.2163C125.869 44.0724 125.272 44.0157 124.638 44.046C124.005 44.0764 123.372 44.2128 122.74 44.4554C122.129 44.6719 121.617 45.018 121.203 45.4937C121.115 45.9295 121.04 46.2811 120.978 46.5484C120.913 46.7924 120.821 47.0988 120.701 47.4677C120.761 47.5784 120.843 47.6629 120.944 47.7213C121.066 47.7536 121.158 47.825 121.218 47.9356C121.719 47.591 122.236 47.3743 122.768 47.2855C123.321 47.1707 123.861 46.9511 124.388 46.6269ZM150.096 37.034C150.139 37.194 150.155 37.3219 150.143 37.4178C150.152 37.4876 150.149 37.5588 150.134 37.6315C150.142 37.7013 150.152 37.7827 150.164 37.8757C150.172 37.9455 150.21 38.059 150.276 38.2162C149.885 39.0669 149.381 39.6834 148.767 40.0655C148.173 40.4216 147.513 40.715 146.785 40.9457C146.055 41.1531 145.303 41.375 144.529 41.6114C143.778 41.845 143.048 42.2414 142.337 42.8006C142.02 42.7213 141.741 42.7555 141.499 42.9031C141.281 43.0479 140.936 43.1255 140.465 43.1359C140.343 43.2926 140.181 43.4187 139.98 43.5141C139.777 43.5862 139.574 43.67 139.374 43.7654C139.492 43.9634 139.554 44.1802 139.559 44.4156C139.585 44.625 139.641 44.7952 139.728 44.9263C140.551 44.8964 141.445 44.7751 142.411 44.5625C143.4 44.347 144.37 44.1692 145.321 44.0292C145.358 44.1427 145.357 44.2256 145.316 44.2778C145.272 44.3067 145.268 44.3663 145.302 44.4565C145.479 44.5529 145.661 44.6842 145.846 44.8504C146.029 44.9933 146.212 45.1362 146.395 45.2791C146.577 45.422 146.757 45.5417 146.934 45.6381C147.132 45.7083 147.346 45.7176 147.575 45.6659C147.691 45.8406 147.775 46.0429 147.827 46.2726C147.899 46.4763 147.903 46.7002 147.838 46.9442C147.497 47.2457 147.158 47.5588 146.82 47.8835C146.479 48.185 146.112 48.466 145.719 48.7266C145.349 48.9844 144.94 49.2116 144.492 49.4081C144.064 49.5785 143.569 49.6863 143.008 49.7313C142.892 49.7456 142.799 49.757 142.729 49.7655C142.682 49.7712 142.608 49.7449 142.507 49.6865C142.335 49.8256 142.072 49.8932 141.717 49.8894C141.386 49.8827 141.134 49.9489 140.962 50.088C140.692 50.003 140.372 49.995 140.003 50.0638C139.654 50.1065 139.334 50.0984 139.044 50.0395C138.731 50.5736 138.458 51.1383 138.224 51.7337C137.99 52.329 137.795 52.955 137.639 53.6116C138.444 53.6311 139.101 53.5979 139.61 53.512C140.143 53.4233 140.638 53.3271 141.098 53.2237C141.555 53.0969 142.025 52.9804 142.507 52.8741C142.987 52.7445 143.601 52.6458 144.348 52.5779C144.782 52.265 145.309 52.0353 145.929 51.8886C146.569 51.7158 147.145 51.5036 147.657 51.252C147.852 51.299 148.03 51.4071 148.193 51.5761C148.352 51.7218 148.5 51.869 148.636 52.0176C148.793 52.1401 148.948 52.251 149.102 52.3502C149.256 52.4495 149.436 52.4746 149.642 52.4258C149.747 52.5074 149.819 52.6166 149.86 52.7534C149.92 52.864 149.97 52.976 150.007 53.0895C150.045 53.203 150.092 53.3034 150.15 53.3908C150.229 53.452 150.336 53.4625 150.473 53.4221C150.218 54.2325 149.883 54.8756 149.469 55.3513C149.076 55.8009 148.601 56.1659 148.045 56.4465C147.489 56.7271 146.857 56.9696 146.151 57.1742C145.467 57.376 144.705 57.611 143.864 57.8792C143.66 57.9513 143.484 57.961 143.336 57.9083C143.191 57.8789 143.025 57.8756 142.839 57.8983C142.318 58.0801 141.691 58.2631 140.958 58.4473C140.225 58.6315 139.473 58.7589 138.703 58.8296C137.932 58.9003 137.187 58.8853 136.466 58.7847C135.748 58.7072 135.141 58.4746 134.645 58.0867C134.439 57.9466 134.288 57.7761 134.193 57.5753C134.118 57.3484 133.945 57.1924 133.675 57.1074C133.615 56.8078 133.527 56.4762 133.412 56.1125C133.296 55.7488 133.179 55.3735 133.061 54.9866C132.94 54.5764 132.832 54.1764 132.737 53.7866C132.666 53.3939 132.645 53.0305 132.675 52.6963C132.702 52.3388 132.803 52.0076 132.978 51.7028C133.177 51.3952 133.221 51.0828 133.111 50.7656C133.225 50.7281 133.287 50.6614 133.299 50.5655C133.308 50.4463 133.396 50.3884 133.561 50.3918C133.65 49.9559 133.753 49.5419 133.87 49.1498C133.987 48.7576 134.106 48.3771 134.226 48.0082C134.369 47.6365 134.501 47.2662 134.621 46.8973C134.762 46.5023 134.886 46.0738 134.995 45.6118C134.632 45.3493 134.348 45.0535 134.143 44.7245C133.958 44.3693 133.809 44.0215 133.696 43.6811C133.581 43.3174 133.477 42.9523 133.385 42.5858C133.29 42.196 133.16 41.8105 132.996 41.4293C133.186 41.0518 133.431 40.7385 133.731 40.4892C134.051 40.2139 134.401 39.9822 134.779 39.7942C135.157 39.6062 135.574 39.4372 136.027 39.2872C136.481 39.1372 136.957 38.9728 137.455 38.7938C138.348 38.3775 139.146 38.0437 139.847 37.7926C140.571 37.5387 141.277 37.3224 141.963 37.1439C142.67 36.9394 143.402 36.7436 144.158 36.5565C144.915 36.3695 145.77 36.1231 146.724 35.8174C146.959 36.0012 147.17 36.0817 147.356 36.0589C147.423 35.8381 147.521 35.7672 147.649 35.846C147.797 35.8987 147.846 35.8218 147.797 35.6152C148.078 35.9822 148.411 36.284 148.794 36.5204C149.197 36.7308 149.631 36.902 150.096 37.034ZM156.488 52.5087C156.346 53.4706 156.201 54.2086 156.051 54.7228C155.922 55.2108 155.691 55.735 155.358 56.2952C155.05 56.2857 154.845 56.3462 154.743 56.4767C154.641 56.6073 154.526 56.7277 154.397 56.8378C154.194 56.9099 154.042 56.9285 153.944 56.8933C153.845 56.8582 153.756 56.81 153.678 56.7487C153.603 56.7108 153.502 56.664 153.378 56.6084C153.279 56.5733 153.125 56.5685 152.915 56.5942C152.846 56.4137 152.767 56.2464 152.677 56.0921C152.61 55.9349 152.452 55.8953 152.202 55.9731C152.226 55.7813 152.219 55.6287 152.181 55.5152C152.141 55.3785 152.092 55.2664 152.034 55.1791C151.996 55.0656 151.96 54.9638 151.926 54.8735C151.888 54.7601 151.883 54.6191 151.909 54.4505C151.793 54.4648 151.69 54.3947 151.6 54.2404C151.51 54.0861 151.409 53.9332 151.296 53.7818C151.315 53.3545 151.336 52.9505 151.36 52.5697C151.384 52.1889 151.423 51.83 151.476 51.4929C151.553 51.153 151.606 50.8159 151.636 50.4817C151.666 50.1474 151.59 49.8144 151.407 49.4825C151.509 49.5409 151.577 49.5207 151.612 49.422C151.645 49.3 151.663 49.1561 151.666 48.9904C151.666 48.8015 151.657 48.6256 151.637 48.4627C151.614 48.2766 151.584 48.1268 151.546 48.0133C151.705 47.38 151.816 46.7407 151.878 46.0955C151.961 45.4242 152.023 44.7674 152.062 44.125C152.125 43.4798 152.189 42.8462 152.254 42.2243C152.32 41.6023 152.438 41.0212 152.608 40.4809C152.858 40.4031 153.141 40.4038 153.458 40.4831C153.795 40.5363 154.009 40.64 154.098 40.7943C154.646 40.255 155.113 39.6312 155.498 38.9229C155.881 38.1913 156.278 37.4815 156.69 36.7936C157.102 36.1057 157.568 35.4818 158.09 34.9221C158.635 34.3595 159.356 33.9762 160.252 33.7721C160.76 34.0641 161.316 34.362 161.919 34.6659C162.544 34.9437 163.078 35.3506 163.521 35.8866C163.719 35.9569 163.883 36.0431 164.013 36.1452C164.164 36.2211 164.34 36.3059 164.54 36.3994L164.591 36.8182C164.902 37.0399 165.16 37.3153 165.365 37.6443C165.591 37.9472 165.798 38.2879 165.986 38.6663C166.172 39.0214 166.358 39.3882 166.546 39.7666C166.731 40.1217 166.938 40.4624 167.167 40.7886C167.135 40.9106 167.124 41.0181 167.136 41.1112C167.144 41.181 167.166 41.261 167.2 41.3512C167.258 41.4385 167.305 41.5273 167.339 41.6175C167.374 41.7077 167.39 41.8357 167.386 42.0014C167.442 43.0335 167.206 43.9007 166.678 44.6029C166.173 45.3022 165.527 45.9125 164.741 46.4337C163.952 46.9317 163.098 47.3787 162.178 47.7746C161.258 48.1705 160.435 48.5783 159.707 48.9979C159.718 49.091 159.759 49.1332 159.829 49.1247C159.922 49.1133 159.964 49.1672 159.955 49.2864C160.556 49.567 161.032 49.7921 161.383 49.9616C161.735 50.1311 162.058 50.2685 162.355 50.374C162.674 50.4765 163.004 50.566 163.344 50.6425C163.704 50.6928 164.195 50.7508 164.817 50.8163C165.439 50.8819 165.919 50.9412 166.256 50.9944C166.613 51.0215 166.936 51.0529 167.224 51.0885C167.508 51.1008 167.793 51.1132 168.078 51.1256C168.383 51.1118 168.806 51.0954 169.347 51.0765C169.582 51.2602 169.788 51.4948 169.965 51.7801C170.162 52.0394 170.302 52.3173 170.385 52.6141C170.466 52.8875 170.512 53.1653 170.523 53.4473C170.531 53.7061 170.475 53.9254 170.355 54.1053C170.387 54.1723 170.438 54.2015 170.508 54.1929C170.598 54.1583 170.691 54.1469 170.787 54.1588C170.659 54.2689 170.557 54.3995 170.481 54.5504C170.405 54.7014 170.329 54.8524 170.253 55.0034C170.177 55.1543 170.086 55.2835 169.981 55.3908C169.879 55.5213 169.725 55.611 169.519 55.6599C168.832 56.0274 167.926 56.15 166.801 56.028C165.679 55.9292 164.241 55.6566 162.486 55.2102C161.609 54.987 160.888 54.7919 160.325 54.6247C159.782 54.4314 159.298 54.2427 158.874 54.0585C158.471 53.8481 158.089 53.6233 157.729 53.384C157.392 53.1419 156.979 52.8501 156.488 52.5087ZM160.013 39.9287C159.803 40.3322 159.554 40.7051 159.265 41.0474C159 41.3869 158.736 41.7379 158.473 42.1007C158.231 42.4373 158.018 42.8175 157.833 43.2415C157.646 43.6422 157.538 44.1041 157.507 44.6273C158.31 44.4346 159.132 44.1097 159.973 43.6525C160.812 43.1721 161.607 42.7206 162.358 42.2981C162.176 41.5883 161.849 41.038 161.377 40.6473C160.927 40.2537 160.473 40.0141 160.013 39.9287Z" fill="black"/>
</svg>
