<?xml version="1.0" encoding="utf-8"?>
<!-- Generator: Adobe Illustrator 25.4.0, SVG Export Plug-In . SVG Version: 6.00 Build 0)  -->
<svg version="1.1" id="Layer_1" xmlns="http://www.w3.org/2000/svg" xmlns:xlink="http://www.w3.org/1999/xlink" x="0px" y="0px"
	 viewBox="0 0 250 250" style="enable-background:new 0 0 250 250;" xml:space="preserve">
<g>
	<g>
		<path d="M47.59,28.25c8.17-6.88,16.29-5.71,21.31,0.27c3.59,4.27,4.26,9.91,0.89,15.32l17.54,6.5l-11.21,9.42l-15.92-6.53
			l-0.05,0.04l9.81,11.66l-10.2,8.58L32.43,40.99L47.59,28.25z M53.85,37.56l-4.04,3.4l4.63,5.51l4.04-3.4
			c1.93-1.62,2.24-3.3,0.62-5.23C57.72,36.19,55.78,35.94,53.85,37.56z"/>
		<path d="M109.35,45.52c-11.84,2.3-23.23-4.72-25.67-17.26c-2.44-12.54,5.51-23.26,17.34-25.56c11.9-2.31,23.1,4.68,25.54,17.23
			C129,32.47,121.13,43.23,109.35,45.52z M106.98,33.32c5.24-1.02,7.41-5.29,6.33-10.83c-1.1-5.65-4.69-8.75-9.94-7.73
			c-5.36,1.04-7.48,5.24-6.38,10.9C98.07,31.2,101.62,34.36,106.98,33.32z"/>
		<path d="M149.03,47.82c-9.29-2.85-15.25-9.39-13.02-18.69l13.53,4.16c-0.69,3.05,0.76,4.06,2.02,4.45
			c1.26,0.39,2.64,0.18,3.08-1.25c1.63-5.52-18.14-9.4-13.64-23.21c2.5-8.14,10.69-10.27,19.35-7.61
			c9.81,3.01,14.67,9.66,12.42,18.19l-13.71-4.21c0.64-2.5-0.45-3.65-1.82-4.07c-1.03-0.32-2.05,0.12-2.47,1.5
			c-1.57,5.1,17.56,10.04,13.72,22.54C166.2,47.08,158.83,50.84,149.03,47.82z"/>
		<path d="M179.03,65.34c-7.21-6.52-9.84-14.97-3.88-22.45l10.5,9.5c-1.92,2.47-1.03,4-0.05,4.89c0.98,0.89,2.32,1.29,3.32,0.17
			c3.82-4.31-12.45-16.2-2.53-26.81c5.72-6.32,14.03-4.78,20.75,1.3c7.61,6.88,9.2,14.96,3.55,21.74l-10.63-9.62
			c1.64-1.99,1.14-3.5,0.08-4.46c-0.8-0.73-1.91-0.75-2.87,0.31c-3.58,3.96,11.66,16.54,2.88,26.24
			C194.91,71.94,186.64,72.22,179.03,65.34z"/>
		<path d="M204.73,122.8c-0.27-9.72,4.02-17.46,13.54-18.32l0.39,14.15c-3.11,0.33-3.6,2.02-3.57,3.34
			c0.04,1.32,0.67,2.56,2.17,2.52c5.76-0.22,3.11-20.19,17.63-20.35c8.52-0.23,13.15,6.84,13.4,15.9
			c0.28,10.26-4.45,16.99-13.26,17.59l-0.39-14.33c2.58-0.19,3.32-1.59,3.28-3.03c-0.03-1.08-0.77-1.9-2.21-1.86
			c-5.34,0.15-3.9,19.85-16.97,20.21C210.93,138.84,205.01,133.06,204.73,122.8z"/>
		<path d="M209.19,172.26l5.54-11.38l-14.89-7.25l5.83-11.98l38.19,18.6l-5.83,11.97l-13.75-6.7l-5.54,11.38l13.75,6.7l-5.83,11.97
			l-38.19-18.6l5.83-11.97L209.19,172.26z"/>
		<path d="M179.55,223.28l12.07-8.91l-3.1-4.2l-10.62,7.84l-5.95-8.06l10.62-7.84l-3.56-4.83l-12.07,8.91l-6.31-8.54l22.79-16.82
			l25.22,34.18l-22.79,16.82L179.55,223.28z"/>
		<path d="M152.08,244.04l-7.5-31.52l-12.49,2.97l-2.33-9.81l25.45-6.06l9.83,41.33L152.08,244.04z"/>
		<path d="M117.57,247.74l-29.56-5.14l1.81-10.4l16.43,2.86l1.01-5.79l-11.82-2.05l1.71-9.87l11.82,2.05l2.74-15.78l13.12,2.28
			L117.57,247.74z"/>
		<path d="M80.51,190.95c10.06,6.65,13.27,19.63,6.22,30.29c-7.05,10.66-20.22,12.74-30.28,6.09c-10.11-6.68-13.2-19.52-6.16-30.18
			C57.34,186.5,70.5,184.33,80.51,190.95z M73.66,201.31c-4.45-2.94-8.99-1.41-12.1,3.29c-3.18,4.8-2.78,9.53,1.68,12.47
			c4.55,3.01,9.01,1.5,12.18-3.31C78.53,209.06,78.21,204.32,73.66,201.31z"/>
		<path d="M17.09,183.83c-5.39-9.22-2.87-17.02,3.87-20.96c4.82-2.82,10.48-2.52,15.25,1.71l9.37-16.18l7.39,12.64l-9.13,14.58
			l0.03,0.05l13.15-7.69l6.72,11.5l-36.67,21.44L17.09,183.83z M27.33,179.24l2.67,4.56l6.21-3.63l-2.67-4.56
			c-1.27-2.18-2.87-2.77-5.05-1.5C26.63,175.19,26.05,177.06,27.33,179.24z"/>
		<path d="M22.6,104.61c12.12-0.12,21.44,8.31,21.58,21.87l0.18,17.7L1.88,144.6L1.7,126.9C1.57,113.34,10.36,104.74,22.6,104.61z
			 M32.31,127.8c-0.06-5.88-3.4-9.75-9.58-9.69c-6.18,0.06-9.44,3.99-9.38,9.87l0.03,3.18l18.96-0.19L32.31,127.8z"/>
	</g>
	<g>
		<circle cx="220.26" cy="80.12" r="8.18"/>
	</g>
	<g>
		<circle cx="25.55" cy="80.12" r="8.18"/>
	</g>
</g>
</svg>
